<svg width="2336" height="474" viewBox="0 0 2336 474" fill="none" xmlns="http://www.w3.org/2000/svg">
<path d="M339.39 372.79C309.38 394.63 273.19 406.31 236.07 406.14C216.19 406.27 196.46 402.72 177.88 395.67C111.57 371.09 67.85 307.49 68.67 236.77C67.85 166.05 111.57 102.44 177.89 77.8704C196.47 70.8104 216.2 67.2504 236.08 67.3704C273.19 67.2004 309.39 78.8904 339.39 100.72C348.39 108.01 356.91 115.88 364.89 124.26H447.33C436.81 106.31 424.54 89.4404 410.71 73.9004C365.95 27.1104 304.13 0.440396 239.36 0.000395672C172.7 -0.119604 108.89 27.0604 62.78 75.2104C22.68 118.97 0.31 176.08 0 235.44C0 235.88 0.02 236.32 0.03 236.77C0.04 237.22 0 237.65 0 238.09C0.31 297.44 22.68 354.56 62.78 398.32C108.89 446.47 172.7 473.65 239.36 473.52C304.12 473.09 365.94 446.43 410.7 399.62C424.54 384.08 436.8 367.21 447.32 349.26H364.88C356.89 357.65 348.38 365.51 339.38 372.8" fill="black"/>
<path d="M2051.84 8.53051V465.651H2121.82V285.821C2200.95 286.471 2233 287.13 2268.31 265.551C2310.37 240.081 2335.95 194.381 2335.67 145.211C2335.67 118.401 2326.51 43.8305 2247.4 17.6805C2226.44 10.4905 2208.81 9.83051 2186.57 8.52051H2051.84V8.53051ZM2121.84 73.2705C2175.47 71.9605 2204.24 71.3105 2227.77 82.4305C2252.03 93.1605 2267.49 117.391 2267.01 143.911C2266.69 173.611 2249.78 200.631 2223.2 213.891C2209.86 219.87 2195.24 222.391 2180.68 222.391C2161.06 223.04 2141.44 222.391 2121.82 222.391L2121.84 73.2805V73.2705Z" fill="black"/>
<path d="M470.45 8.52051V70.6505H559.39V465.651H629.37V70.6505H717.01V8.52051H470.46H470.45Z" fill="black"/>
<path d="M754.48 8.5105V465.65H824.46V240.68L1004.57 465.65H1092.2L906.85 234.141L1084.09 8.5205H999.72L824.46 234.781V8.5205H754.48V8.5105Z" fill="black"/>
<path d="M1610.41 8.52051V465.651H1852.57V402.231H1680.38V8.52051H1610.41Z" fill="black"/>
<path d="M1982.5 8.52051H1913.16V465.651H1982.5V8.52051Z" fill="black"/>
<path d="M1432.63 372.79C1402.62 394.63 1366.42 406.32 1329.3 406.14C1309.42 406.27 1289.69 402.72 1271.11 395.67C1204.79 371.1 1161.07 307.49 1161.89 236.77C1161.07 166.05 1204.79 102.44 1271.11 77.8704C1289.69 70.8104 1309.42 67.2604 1329.3 67.4004C1366.41 67.2204 1402.62 78.9004 1432.63 100.73C1441.63 108.02 1450.15 115.89 1458.13 124.27H1540.56C1530.04 106.31 1517.78 89.4404 1503.94 73.9004C1459.19 27.1004 1397.37 0.430396 1332.61 0.000395816C1265.94 -0.119604 1202.14 27.0504 1156.03 75.2004C1115.93 118.96 1093.54 176.08 1093.23 235.43C1093.23 235.87 1093.25 236.31 1093.26 236.76C1093.27 237.21 1093.23 237.64 1093.23 238.09C1093.54 297.44 1115.92 354.56 1156.03 398.32C1202.14 446.47 1265.95 473.65 1332.61 473.52C1397.37 473.09 1459.19 446.43 1503.95 399.62C1517.79 384.08 1530.05 367.21 1540.57 349.26H1458.14C1450.15 357.65 1441.63 365.51 1432.64 372.8" fill="black"/>
</svg>
